<?xml version="1.0" encoding="UTF-8"?>
<svg width="1400" version="1.1" viewBox="0 0 1400 900" xmlns="http://www.w3.org/2000/svg">
	<defs>
		<filter id="bevel" filterUnits="objectBoundingBox" x="-10%" y="-10%" width="120%" height="120%">
			<feGaussianBlur in="SourceAlpha" stdDeviation="0.3" result="blur"/>
			<feSpecularLighting in="blur" surfaceScale="5" specularConstant="1" specularExponent="10" result="specOut" lighting-color="#FFF">
				<fePointLight x="100" y="200" z="20"/>
			</feSpecularLighting>
			<feComposite in="specOut" in2="SourceAlpha" operator="in" result="specOut2"/>
			<feComposite in="SourceGraphic" in2="specOut2" operator="arithmetic" k1="0" k2="1" k3="1" k4="0" />
		</filter>
		
		<filter id="dropshadow" x="-20%" y="-20%" width="140%" height="140%">
			<feDropShadow dx="1" dy="1" stdDeviation="1" />
		</filter>
		
		<filter id="bgDropshadow" x="-20%" y="-20%" width="200%" height="200%">
			<feDropShadow dx="5" dy="5" stdDeviation="1" />
		</filter>
		
		<filter id="metallic" x="0" y="0" width="1" height="1">
			<feTurbulence type="fractalNoise" baseFrequency="0.1 50" numOctaves="2" seed="0" result="turbulence"/>
			<feComposite in="SourceGraphic" in2="turbulence" operator="in" result="composite1"/>
			<feColorMatrix values="1 0 0 0 0 0 1 0 0 0 0 0 1 0 0 0 0 0 3.1 -0.7 " result="color"/>
			<feFlood flood-opacity="1" flood-color="#A88B2C" result="flood" />
			<feMerge result="merge">
				<feMergeNode in="flood"/>
				<feMergeNode in="color"/>
			</feMerge>
			<feComposite in2="SourceGraphic" operator="in"/>
		</filter>
		
		<filter id="glow">
			<feGaussianBlur in="SourceAlpha" stdDeviation="10" result="blur"/>
			
			<feDiffuseLighting in="SourceGraphic" result="light" lighting-color="#AAA">
				<fePointLight x="40" y="65" z="10" />
			</feDiffuseLighting>
			
			<feComposite in="light" in2="SourceAlpha" operator="in" result="glowWhite"/>
			<feComposite in="SourceGraphic" in2="glowWhite" operator="arithmetic" k1="0" k2="1" k3="2.5" k4="0" />
		</filter>
		
		<filter id="marbleEffect" x="0%" y="0%" width="400%" height="600%">
			<feTurbulence baseFrequency="0.005" />
			<feColorMatrix type="matrix" values="1 1 1 0 0 1 1 1 0 0 1 1 1 0 0 0 1 0 1 0" result="marble"/>
			<feComposite in="SourceGraphic" in2="marble" operator="arithmetic" k1="0" k2="1" k3="3" k4="0" />
		</filter>
		
		<mask id="marbleEffectArea">
			<radialGradient id="maskGradient" cx="60%" cy="60%">
				<stop offset="0.25" stop-color="#999"/>
				<stop offset="0.4" stop-color="#FFF"/>
			</radialGradient>
		
			<rect x="-100%" y="-100%" width="250%" height="250%" fill="url(#maskGradient)"/>
		</mask>
		
		<mask id="roundCorners">
			<rect rx="200" ry="200" width="100%" height="100%" fill="white"/>
		</mask>
		
		<linearGradient id="background" gradientTransform="rotate(45)">
			<stop offset="0.6" stop-color="#FFF"/>
			<stop offset="1" stop-color="#DDF"/>
		</linearGradient>
	</defs>

	<g filter="url(#bgDropshadow)">
		<g mask="url(#roundCorners)">
			<rect width="1400" height="1000" fill="url(#background)" />
			<rect x="0%" y="0%" width="100%" mask="url(#marbleEffectArea)" height="100%" opacity="0.3" filter="url(#marbleEffect)"/>
		</g>
		<g transform="translate(312.475 111.825)">
			<g transform="scale(10)">
				<g fill="#BF9E32" filter="url(#metallic) url(#bevel) url(#glow) url(#dropshadow)">
					<g transform="translate(-43.818977,-74.293594)">
						<g transform="matrix(0.30812497,0,0,0.30812497,-7.842796,-9.66553)">
							<path d="m 261.952,453.479 c -19.622,12.449 -35.535,26.3 -35.535,38.49 22.788,0 41.304,0 41.304,0 0,0 3.061,-25.458 20.045,-37.395 -2.676,-0.755 -5.515,-1.139 -8.521,-1.139 z"/>
							<path d="m 418.13,401.293 c 0.68,-5.286 1.037,-10.673 1.037,-16.144 0,-0.633 -0.008,-1.266 -0.017,-1.897 h -18.26 l 0.712,-5.698 h 17.336 c -0.361,-6.061 -1.162,-12.003 -2.353,-17.802 h -14.983 l -0.712,-5.698 h 14.383 c -1.58,-6.213 -3.633,-12.235 -6.097,-18.04 h -11.847 l -2.137,-5.697 h 11.395 c -3.069,-6.328 -6.654,-12.359 -10.696,-18.041 l -4.303,-5.697 c -11.371,-14.21 -25.757,-25.902 -42.201,-34.095 19.286,16.067 31.562,40.262 31.562,67.327 0,33.42 -18.717,62.47 -46.241,77.237 0,0 -16.068,6.399 -35.822,16.082 3.217,1.651 6.478,3.369 9.732,5.144 6.471,3.526 12.363,6.958 17.711,10.303 l 75.581,0.191 c 3.37,-5.737 6.295,-11.768 8.735,-18.041 h -28.271 l 3.56,-5.696 h 26.758 c 1.95,-5.834 3.482,-11.861 4.568,-18.041 h -22.068 l 2.137,-5.696 h 20.801 z"/>
							<path d="m 252.125,417.048 c -27.524,-14.767 -46.241,-43.816 -46.241,-77.237 0,-27.064 12.277,-51.259 31.563,-67.327 -16.443,8.193 -30.83,19.885 -42.202,34.095 l -4.302,5.697 c -4.042,5.682 -7.627,11.713 -10.696,18.041 h 11.394 l -2.137,5.697 h -11.846 c -2.465,5.804 -4.518,11.827 -6.098,18.04 h 14.384 l -0.712,5.698 h -14.985 c -1.189,5.799 -1.991,11.742 -2.352,17.802 h 17.336 l 0.712,5.698 h -18.26 c -0.01,0.631 -0.018,1.264 -0.018,1.897 0,5.471 0.356,10.858 1.038,16.144 h 20.8 l 2.137,5.696 h -22.068 c 1.086,6.179 2.617,12.206 4.568,18.041 h 26.758 l 3.561,5.696 h -28.271 c 2.44,6.273 5.364,12.304 8.734,18.041 l 94.31,-0.238 c 34.656,0 39.879,43.439 39.879,43.439 0,0 18.516,0 41.304,0 10e-4,-31.807 -108.29,-74.92 -108.29,-74.92 z"/>
						</g>
					</g>
				</g>
			</g>
		</g>
	</g>
</svg>
